<?xml version="1.0" encoding="utf-8"?>
<!-- Generator: Adobe Illustrator 24.1.1, SVG Export Plug-In . SVG Version: 6.00 Build 0)  -->
<svg version="1.1" id="Layer_1" xmlns="http://www.w3.org/2000/svg" xmlns:xlink="http://www.w3.org/1999/xlink" x="0px" y="0px"
	 viewBox="0 0 512 512" style="enable-background:new 0 0 512 512;" xml:space="preserve">
<g>
	<path d="M182.18,300.92L153.6,75.62L125.05,300.9H25.6C11.48,300.9,0,289.72,0,275.92c0.17-13.98,11.63-25.18,25.6-25.05h54.18
		l23.05-181.4c3.43-27.42,29.03-46.9,57.05-43.5c23.3,2.8,41.63,20.73,44.52,43.5l23.03,181.4h50.53l29.25,185.5l29.25-185.48H486.4
		c14.15,0,25.6,11.23,25.6,25.05c0,13.83-11.45,25-25.6,25H380.38l-22.55,143.03c-3.63,21.8-20.95,38.72-42.8,41.85
		c-27.95,4.23-54.1-14.52-58.42-41.85l-22.53-143.03h-51.93L182.18,300.92z"/>
</g>
</svg>
